<svg xmlns="http://www.w3.org/2000/svg" width="128" height="128" viewBox="0 0 128 128">
  <title>PLAN</title>
  <g>
    <g>
      <g>
        <path d="M50.25,34.406v57.75h0L46.373,100.1l-5.666,11.606L35.042,100.1l-3.878-7.945V34.406H16.687v76.907H9.219a7.469,7.469,0,1,0,0,14.937H126.25v-44.6L83.717,34.406Z" fill="#f3f5f9"/>
        <polygon points="116.25 34.406 97.172 34.406 116.25 55.597 116.25 34.406" fill="#f3f5f9"/>
      </g>
      <path d="M9.219,111.313h7.468V34.406a7.469,7.469,0,0,0-14.937,0v84.375A7.468,7.468,0,0,1,9.219,111.313Z" fill="#e1e6f0"/>
      <path d="M31.164,92.156l3.268-3.269a8.872,8.872,0,0,1,12.549,0l3.269,3.269V27.677H31.164Z" fill="#ffdf40"/>
      <path d="M50.25,5.73a13.432,13.432,0,0,0-19.086,0h0v11.2H50.25V5.73Z" fill="#3d4566"/>
      <rect x="31.164" y="16.934" width="19.086" height="10.743" fill="#ff7f40"/>
      <path d="M46.373,100.1l3.878-7.945-3.27-3.269a8.871,8.871,0,0,0-12.548,0l-3.269,3.269,3.878,7.945Z" fill="#ffc080"/>
      <polygon points="40.707 111.707 46.373 100.101 35.042 100.101 40.707 111.707" fill="#3d4566"/>
      <path d="M62.055,10.346l64.195,71.3v-71.3ZM116.25,55.6,84.514,20.347H116.25Z" fill="#4d5e80"/>
      <path d="M108.5,106.454H53.25a1.75,1.75,0,0,1,0-3.5H108.5a1.75,1.75,0,0,1,0,3.5Z" fill="#e1e6f0"/>
      <path d="M108.5,93.905H64a1.75,1.75,0,0,1,0-3.5h44.5a1.75,1.75,0,0,1,0,3.5Z" fill="#e1e6f0"/>
      <path d="M108.5,81.356H64a1.75,1.75,0,0,1,0-3.5h44.5a1.75,1.75,0,0,1,0,3.5Z" fill="#e1e6f0"/>
    </g>
    <g>
      <path d="M52,64.375a1.75,1.75,0,0,0-3.5,0v4.391a1.75,1.75,0,0,0,3.5,0Z"/>
      <path d="M82.915,19.635a1.751,1.751,0,0,0,.3,1.883L95.87,35.576h0l19.078,21.191A1.751,1.751,0,0,0,118,55.6V20.347a1.75,1.75,0,0,0-1.75-1.75H84.514A1.752,1.752,0,0,0,82.915,19.635ZM101.1,36.156h13.4V51.037ZM114.5,22.1V32.656H97.951L88.444,22.1Z"/>
      <path d="M126.25,8.6h-16a1.75,1.75,0,0,0,0,3.5H124.5V77.09l-2.956-3.283L85.018,33.235l0,0L65.985,12.1H94.153a1.75,1.75,0,0,0,0-3.5h-32.1a1.75,1.75,0,0,0-1.3,2.921L79.786,32.656H52V5.729A1.748,1.748,0,0,0,51.493,4.5,15.074,15.074,0,0,0,40.708,0h0A15.08,15.08,0,0,0,29.92,4.5a1.752,1.752,0,0,0-.506,1.231V32.656H18.266A9.217,9.217,0,0,0,0,34.406v84.375A9.23,9.23,0,0,0,9.219,128H126.25a1.75,1.75,0,0,0,1.75-1.75V10.347A1.75,1.75,0,0,0,126.25,8.6ZM48.13,92.511l-2.851,5.84H36.135L33.284,92.51l2.386-2.386a7.122,7.122,0,0,1,10.074,0Zm-4.559,9.34-2.864,5.867-2.863-5.867ZM32.914,18.685H48.5v7.242H32.914Zm0-12.207a11.686,11.686,0,0,1,15.586,0v8.707H32.914ZM3.5,34.406a5.719,5.719,0,0,1,11.437,0v75.157H9.219A9.311,9.311,0,0,0,3.5,111.556ZM9.219,124.5a5.719,5.719,0,1,1,0-11.437h7.468a1.75,1.75,0,0,0,1.75-1.75V36.156H29.414v56c0,.043.015.083.018.125a1.741,1.741,0,0,0,.037.246,1.718,1.718,0,0,0,.085.275c.016.04.018.083.037.122l3.878,7.945,5.666,11.607a1.75,1.75,0,0,0,3.145,0l5.665-11.607,3.878-7.944c.02-.041.023-.085.039-.127a1.742,1.742,0,0,0,.082-.266,1.832,1.832,0,0,0,.038-.254c0-.041.018-.08.018-.122V80.328a1.75,1.75,0,0,0-3.5,0v7.6l-.282-.282q-.377-.375-.782-.709a10.537,10.537,0,0,0-6.73-2.4q-.531,0-1.055.051A10.545,10.545,0,0,0,33.2,87.649l-.281.282v-58.5H48.5V52.813a1.75,1.75,0,0,0,3.5,0V36.156H82.937L124.5,82.321V124.5Z"/>
      <path d="M108.5,102.954H53.25a1.75,1.75,0,0,0,0,3.5H108.5a1.75,1.75,0,0,0,0-3.5Z"/>
      <path d="M108.5,90.405H64a1.75,1.75,0,0,0,0,3.5h44.5a1.75,1.75,0,0,0,0-3.5Z"/>
      <path d="M108.5,77.856H64a1.75,1.75,0,0,0,0,3.5h44.5a1.75,1.75,0,0,0,0-3.5Z"/>
    </g>
  </g>
</svg>
